<svg width="18" height="16" viewBox="0 0 18 16" fill="none" xmlns="http://www.w3.org/2000/svg">
<path fill-rule="evenodd" clip-rule="evenodd" d="M8.29604 0.658288C8.3536 0.475753 8.46785 0.316321 8.62221 0.203149C8.77656 0.0899781 8.96297 0.0289612 9.15437 0.0289612C9.34577 0.0289612 9.53218 0.0899781 9.68653 0.203149C9.84089 0.316321 9.95514 0.475753 10.0127 0.658288L11.5627 5.42495H16.5627C16.7609 5.41746 16.9562 5.47507 17.1186 5.58899C17.281 5.7029 17.4017 5.86686 17.4621 6.0558C17.5226 6.24474 17.5195 6.44829 17.4534 6.63533C17.3873 6.82238 17.2618 6.98263 17.096 7.09162L13.0377 10.0333L14.5877 14.8083C14.649 14.9902 14.6505 15.1869 14.5921 15.3697C14.5337 15.5526 14.4183 15.7119 14.2629 15.8245C14.1075 15.9371 13.9201 15.9971 13.7282 15.9957C13.5362 15.9943 13.3498 15.9315 13.196 15.8166L9.12937 12.8416L5.07104 15.7916C4.91729 15.9065 4.73084 15.9693 4.53891 15.9707C4.34697 15.9721 4.15961 15.9121 4.00418 15.7995C3.84875 15.6869 3.7334 15.5276 3.67496 15.3447C3.61652 15.1619 3.61807 14.9652 3.67937 14.7833L5.22937 10.0083L1.17104 7.06662C1.00527 6.95763 0.879747 6.79738 0.813638 6.61033C0.747528 6.42329 0.744471 6.21975 0.804934 6.0308C0.865396 5.84186 0.986052 5.6779 1.14847 5.56398C1.31088 5.45007 1.50613 5.39246 1.70437 5.39995H6.70437L8.29604 0.658288Z" fill="#151515"/>
</svg>
