<svg width="0" height="0" class="hidden">
  <symbol fill="none" xmlns="http://www.w3.org/2000/svg" viewBox="0 0 18 16" id="rating-star">
    <path fill-rule="evenodd" clip-rule="evenodd" d="M8.29604 0.658288C8.3536 0.475753 8.46785 0.316321 8.62221 0.203149C8.77656 0.0899781 8.96297 0.0289612 9.15437 0.0289612C9.34577 0.0289612 9.53218 0.0899781 9.68653 0.203149C9.84089 0.316321 9.95514 0.475753 10.0127 0.658288L11.5627 5.42495H16.5627C16.7609 5.41746 16.9562 5.47507 17.1186 5.58899C17.281 5.7029 17.4017 5.86686 17.4621 6.0558C17.5226 6.24474 17.5195 6.44829 17.4534 6.63533C17.3873 6.82238 17.2618 6.98263 17.096 7.09162L13.0377 10.0333L14.5877 14.8083C14.649 14.9902 14.6505 15.1869 14.5921 15.3697C14.5337 15.5526 14.4183 15.7119 14.2629 15.8245C14.1075 15.9371 13.9201 15.9971 13.7282 15.9957C13.5362 15.9943 13.3498 15.9315 13.196 15.8166L9.12937 12.8416L5.07104 15.7916C4.91729 15.9065 4.73084 15.9693 4.53891 15.9707C4.34697 15.9721 4.15961 15.9121 4.00418 15.7995C3.84875 15.6869 3.7334 15.5276 3.67496 15.3447C3.61652 15.1619 3.61807 14.9652 3.67937 14.7833L5.22937 10.0083L1.17104 7.06662C1.00527 6.95763 0.879747 6.79738 0.813638 6.61033C0.747528 6.42329 0.744471 6.21975 0.804934 6.0308C0.865396 5.84186 0.986052 5.6779 1.14847 5.56398C1.31088 5.45007 1.50613 5.39246 1.70437 5.39995H6.70437L8.29604 0.658288Z" fill="#151515"></path>
  </symbol>
  <symbol fill="none" xmlns="http://www.w3.org/2000/svg" viewBox="0 0 24 24" id="user">
    <path d="M3 21.9999L3.79 19.1199C6.4 9.6199 17.6 9.6199 20.21 19.1199L21 21.9999" stroke="#151515" stroke-width="2.5" stroke-linecap="round" stroke-linejoin="round"></path>
    <path d="M12 11.98C14.7614 11.98 17 9.74141 17 6.97998C17 4.21856 14.7614 1.97998 12 1.97998C9.23858 1.97998 7 4.21856 7 6.97998C7 9.74141 9.23858 11.98 12 11.98Z" stroke="#151515" stroke-width="2.5" stroke-linecap="round" stroke-linejoin="bevel"></path>
  </symbol>
  <symbol fill="none" xmlns="http://www.w3.org/2000/svg" viewBox="0 0 24 24" id="basket">
    <path d="M17.8896 20.8499H6.10955C5.79187 20.8501 5.48326 20.7439 5.23309 20.5481C4.98291 20.3523 4.80562 20.0783 4.72955 19.7699L2.07955 9.15986C2.05369 9.05657 2.05174 8.94874 2.07383 8.84458C2.09593 8.74042 2.1415 8.64267 2.20707 8.55878C2.27264 8.47489 2.35649 8.40706 2.45223 8.36046C2.54797 8.31386 2.65307 8.28971 2.75955 8.28986H21.2396C21.346 8.28971 21.4511 8.31386 21.5469 8.36046C21.6426 8.40706 21.7265 8.47489 21.792 8.55878C21.8576 8.64267 21.9032 8.74042 21.9253 8.84458C21.9474 8.94874 21.9454 9.05657 21.9196 9.15986L19.2696 19.7699C19.1935 20.0783 19.0162 20.3523 18.766 20.5481C18.5158 20.7439 18.2072 20.8501 17.8896 20.8499V20.8499Z" stroke="#151515" stroke-width="2.5" stroke-linecap="round" stroke-linejoin="round"></path>
    <path d="M9.79941 3.14993L6.89941 8.28993" stroke="#151515" stroke-width="2.5" stroke-linecap="round" stroke-linejoin="round"></path>
    <path d="M13.8799 3.14993L16.7899 8.28993" stroke="#151515" stroke-width="2.5" stroke-linecap="round" stroke-linejoin="round"></path>
  </symbol>
  <symbol version="1.1" id="cross" xmlns="http://www.w3.org/2000/svg" viewBox="0 0 15 15">
    <path d="M2.64,1.27L7.5,6.13l4.84-4.84C12.5114,1.1076,12.7497,1.0029,13,1c0.5523,0,1,0.4477,1,1
	c0.0047,0.2478-0.093,0.4866-0.27,0.66L8.84,7.5l4.89,4.89c0.1648,0.1612,0.2615,0.3796,0.27,0.61c0,0.5523-0.4477,1-1,1
	c-0.2577,0.0107-0.508-0.0873-0.69-0.27L7.5,8.87l-4.85,4.85C2.4793,13.8963,2.2453,13.9971,2,14c-0.5523,0-1-0.4477-1-1
	c-0.0047-0.2478,0.093-0.4866,0.27-0.66L6.16,7.5L1.27,2.61C1.1052,2.4488,1.0085,2.2304,1,2c0-0.5523,0.4477-1,1-1
	C2.2404,1.0029,2.4701,1.0998,2.64,1.27z"></path>
  </symbol>
  <symbol fill="none" xmlns="http://www.w3.org/2000/svg" viewBox="0 0 14 14" id="glass">
    <path d="M8.19303 10.4333C10.7704 10.4333 12.8597 8.34394 12.8597 5.76661C12.8597 3.18928 10.7704 1.09995 8.19303 1.09995C5.61571 1.09995 3.52637 3.18928 3.52637 5.76661C3.52637 8.34394 5.61571 10.4333 8.19303 10.4333Z" stroke="#151515" stroke-width="1.5" stroke-linecap="round" stroke-linejoin="bevel"></path>
    <path d="M4.81319 9.24002L1.68652 12.3667" stroke="#151515" stroke-width="1.5" stroke-linecap="round" stroke-linejoin="bevel"></path>
  </symbol>
  <symbol fill="none" xmlns="http://www.w3.org/2000/svg" viewBox="0 0 16 16" id="grid-view">
    <path d="M13.334 1.33331H2.66732C1.93094 1.33331 1.33398 1.93027 1.33398 2.66665V13.3333C1.33398 14.0697 1.93094 14.6666 2.66732 14.6666H13.334C14.0704 14.6666 14.6673 14.0697 14.6673 13.3333V2.66665C14.6673 1.93027 14.0704 1.33331 13.334 1.33331Z" stroke="#6A983C" stroke-linecap="round" stroke-linejoin="round"></path>
    <path d="M1.33398 8H14.6673" stroke="#6A983C" stroke-linecap="round" stroke-linejoin="round"></path>
    <path d="M8 1.33331V14.6666" stroke="#6A983C" stroke-linecap="round" stroke-linejoin="round"></path>
  </symbol>
  <symbol fill="none" xmlns="http://www.w3.org/2000/svg" viewBox="0 0 16 16" id="list-view">
    <path d="M13.334 1.33331H2.66732C1.93094 1.33331 1.33398 1.93027 1.33398 2.66665V13.3333C1.33398 14.0697 1.93094 14.6666 2.66732 14.6666H13.334C14.0704 14.6666 14.6673 14.0697 14.6673 13.3333V2.66665C14.6673 1.93027 14.0704 1.33331 13.334 1.33331Z" stroke="#A9A9A9" stroke-linecap="round" stroke-linejoin="round"></path>
    <path d="M1.33398 4.66663H14.6673" stroke="#A9A9A9" stroke-linecap="round" stroke-linejoin="round"></path>
    <path d="M1.33398 8H14.6673" stroke="#A9A9A9" stroke-linecap="round" stroke-linejoin="round"></path>
    <path d="M1.33398 11.3333H14.6673" stroke="#A9A9A9" stroke-linecap="round" stroke-linejoin="round"></path>
  </symbol>
</svg>